<svg width="175" height="106" viewBox="0 0 175 106" fill="none" xmlns="http://www.w3.org/2000/svg">
<g filter="url(#filter0_i_1053_84)">
<path d="M171 0H4C1.79086 0 0 1.79086 0 4V102C0 104.209 1.79086 106 4 106H171C173.209 106 175 104.209 175 102V4C175 1.79086 173.209 0 171 0Z" fill="#1368CE"/>
</g>
<path d="M24 15L15 24.0029L24 33L33 24.0006L24 15Z" fill="white"/>
<path opacity="0.15" fill-rule="evenodd" clip-rule="evenodd" d="M23.9999 13.5857L34.4142 24.0007L24.0001 34.4141L13.5858 24.0031L23.9999 13.5857ZM15 24.0029L24 15L33 24.0006L24 33L15 24.0029Z" fill="black"/>
<defs>
<filter id="filter0_i_1053_84" x="0" y="-4" width="175" height="110" filterUnits="userSpaceOnUse" color-interpolation-filters="sRGB">
<feFlood flood-opacity="0" result="BackgroundImageFix"/>
<feBlend mode="normal" in="SourceGraphic" in2="BackgroundImageFix" result="shape"/>
<feColorMatrix in="SourceAlpha" type="matrix" values="0 0 0 0 0 0 0 0 0 0 0 0 0 0 0 0 0 0 127 0" result="hardAlpha"/>
<feOffset dy="-4"/>
<feGaussianBlur stdDeviation="2"/>
<feComposite in2="hardAlpha" operator="arithmetic" k2="-1" k3="1"/>
<feColorMatrix type="matrix" values="0 0 0 0 0 0 0 0 0 0 0 0 0 0 0 0 0 0 0.15 0"/>
<feBlend mode="normal" in2="shape" result="effect1_innerShadow_1053_84"/>
</filter>
</defs>
</svg>
