<svg width="24" height="24" viewBox="0 0 24 24" fill="none" xmlns="http://www.w3.org/2000/svg">
<path fill-rule="evenodd" clip-rule="evenodd" d="M12 21.9998C6.477 21.9998 2 17.5228 2 11.9998C2 6.47732 6.477 1.99982 12 1.99982C17.523 1.99982 22 6.47732 22 11.9998C22 17.5228 17.523 21.9998 12 21.9998Z" fill="#F2F2F2"/>
<path fill-rule="evenodd" clip-rule="evenodd" d="M19.8017 21.9886L7.89918 23.9916C7.58368 24.0446 7.28518 23.8326 7.23218 23.5171L3.72368 2.67811C3.67068 2.36311 3.88318 2.06411 4.19818 2.01111L16.1007 0.00810505C16.4162 -0.0448949 16.7147 0.167605 16.7677 0.482605L20.2762 21.3221C20.3297 21.6371 20.1167 21.9356 19.8017 21.9886" fill="#333333"/>
<path fill-rule="evenodd" clip-rule="evenodd" d="M19.0828 20.6114L8.12732 22.4554C7.95082 22.4849 7.78382 22.3659 7.75432 22.1894L4.53832 3.09041C4.50882 2.91341 4.62732 2.74641 4.80432 2.71641L15.7593 0.872408C15.9358 0.842908 16.1033 0.961908 16.1328 1.13891L19.3488 20.2379C19.3783 20.4144 19.2593 20.5819 19.0828 20.6114Z" fill="#FAFAFA"/>
<path fill-rule="evenodd" clip-rule="evenodd" d="M18.4985 20.0501L13.8485 20.8326C13.7895 20.8426 13.7335 20.8026 13.7235 20.7436L12.306 12.3246C12.296 12.2656 12.336 12.2091 12.395 12.1991L17.045 11.4166C17.104 11.4066 17.16 11.4466 17.17 11.5061L18.5875 19.9251C18.5975 19.9841 18.5575 20.0401 18.4985 20.0501Z" fill="#26890C"/>
<path fill-rule="evenodd" clip-rule="evenodd" d="M12.9675 20.981L8.31747 21.7635C8.25847 21.7735 8.20247 21.7335 8.19247 21.6745L6.77497 13.2555C6.76497 13.1965 6.80497 13.14 6.86397 13.13L11.5135 12.3475C11.573 12.3375 11.629 12.3775 11.639 12.437L13.0565 20.856C13.0665 20.915 13.0265 20.971 12.9675 20.981Z" fill="#FFA602"/>
<path fill-rule="evenodd" clip-rule="evenodd" d="M16.9468 10.8351L12.2973 11.6176C12.2383 11.6276 12.1818 11.5876 12.1718 11.5286L10.6403 2.43358C10.6308 2.37408 10.6703 2.31808 10.7298 2.30808L15.3793 1.52558C15.4388 1.51558 15.4948 1.55558 15.5048 1.61458L17.0363 10.7101C17.0458 10.7691 17.0063 10.8251 16.9468 10.8351Z" fill="#1368CE"/>
<path fill-rule="evenodd" clip-rule="evenodd" d="M11.4158 11.7657L6.76632 12.5482C6.70682 12.5582 6.65082 12.5182 6.64082 12.4592L5.10932 3.36418C5.09932 3.30518 5.13932 3.24868 5.19882 3.23868L9.84832 2.45618C9.90732 2.44618 9.96382 2.48618 9.97382 2.54568L11.5048 11.6407C11.5148 11.6997 11.4753 11.7557 11.4158 11.7657Z" fill="#E11C3C"/>
<path fill-rule="evenodd" clip-rule="evenodd" d="M7.31738 8.67659L8.10738 6.50409L9.54388 8.31559L7.31738 8.67659Z" fill="#FAFAFA"/>
<path fill-rule="evenodd" clip-rule="evenodd" d="M13.5958 5.43658L15.0143 6.41608L14.0168 7.82158L12.5978 6.84208L13.5958 5.43658Z" fill="#FAFAFA"/>
<path fill-rule="evenodd" clip-rule="evenodd" d="M10.7896 16.7271C10.7041 16.1746 10.1876 15.7956 9.63656 15.8811C9.08606 15.9666 8.70906 16.4836 8.79456 17.0366C8.88056 17.5896 9.39656 17.9681 9.94756 17.8831C10.4981 17.7976 10.8751 17.2801 10.7896 16.7271Z" fill="#FAFAFA"/>
<path fill-rule="evenodd" clip-rule="evenodd" d="M16.6183 16.8426L14.6283 17.1811L14.2883 15.1841L16.2783 14.8456L16.6183 16.8426Z" fill="#FAFAFA"/>
</svg>
