<svg width="179" height="110" viewBox="0 0 179 110" fill="none" xmlns="http://www.w3.org/2000/svg">
<g filter="url(#filter0_i_1050_63)">
<path d="M175 4H8C5.79086 4 4 5.79086 4 8V106C4 108.209 5.79086 110 8 110H175C177.209 110 179 108.209 179 106V8C179 5.79086 177.209 4 175 4Z" fill="#FF99AA"/>
</g>
<path d="M14 27C21.1797 27 27 21.1797 27 14C27 6.8203 21.1797 1 14 1C6.8203 1 1 6.8203 1 14C1 21.1797 6.8203 27 14 27Z" fill="#FF3355"/>
<path d="M14 27C21.1797 27 27 21.1797 27 14C27 6.8203 21.1797 1 14 1C6.8203 1 1 6.8203 1 14C1 21.1797 6.8203 27 14 27Z" stroke="#FF3355" stroke-width="2"/>
<path d="M14 27C21.1797 27 27 21.1797 27 14C27 6.8203 21.1797 1 14 1C6.8203 1 1 6.8203 1 14C1 21.1797 6.8203 27 14 27Z" stroke="black" stroke-opacity="0.15" stroke-width="2"/>
<mask id="mask0_1050_63" style="mask-type:alpha" maskUnits="userSpaceOnUse" x="1" y="1" width="26" height="25">
<path d="M26.017 1.44507H1.9754V25.4867H26.017V1.44507Z" fill="white"/>
<path fill-rule="evenodd" clip-rule="evenodd" d="M7.63226 17.7085L10.2839 20.3602L13.9962 16.6479L17.7085 20.3602L20.3602 17.7085L16.6479 13.9962L20.3602 10.2839L17.7085 7.63226L13.9962 11.3446L10.2839 7.63226L7.63227 10.2839L11.3446 13.9962L7.63226 17.7085Z" fill="black"/>
</mask>
<g mask="url(#mask0_1050_63)">
<path fill-rule="evenodd" clip-rule="evenodd" d="M7.63225 17.7085L10.2839 20.3602L13.9962 16.6479L17.7085 20.3602L20.3602 17.7085L16.6479 13.9962L20.3602 10.2839L17.7085 7.63226L13.9962 11.3446L10.2839 7.63226L7.63226 10.2839L11.3446 13.9962L7.63225 17.7085Z" fill="white"/>
<path d="M10.2839 20.3602L9.5768 21.0673L10.2839 21.7744L10.991 21.0673L10.2839 20.3602ZM7.63225 17.7085L6.92515 17.0014L6.21804 17.7085L6.92515 18.4157L7.63225 17.7085ZM13.9962 16.6479L14.7033 15.9408L13.9962 15.2337L13.2891 15.9408L13.9962 16.6479ZM17.7085 20.3602L17.0014 21.0673L17.7085 21.7744L18.4156 21.0673L17.7085 20.3602ZM20.3602 17.7085L21.0673 18.4157L21.7744 17.7085L21.0673 17.0014L20.3602 17.7085ZM16.6479 13.9962L15.9408 13.2891L15.2337 13.9962L15.9408 14.7033L16.6479 13.9962ZM20.3602 10.2839L21.0673 10.991L21.7744 10.2839L21.0673 9.57682L20.3602 10.2839ZM17.7085 7.6323L18.4156 6.92519L17.7085 6.21808L17.0014 6.92519L17.7085 7.6323ZM13.9962 11.3446L13.2891 12.0517L13.9962 12.7588L14.7033 12.0517L13.9962 11.3446ZM10.2839 7.6323L10.991 6.92519L10.2839 6.21808L9.5768 6.92519L10.2839 7.6323ZM7.63226 10.2839L6.92515 9.57682L6.21804 10.2839L6.92515 10.991L7.63226 10.2839ZM11.3446 13.9962L12.0517 14.7033L12.7588 13.9962L12.0517 13.2891L11.3446 13.9962ZM10.991 19.6531L8.3394 17.0014L6.92515 18.4157L9.5768 21.0673L10.991 19.6531ZM13.2891 15.9408L9.5768 19.6531L10.991 21.0673L14.7033 17.355L13.2891 15.9408ZM18.4156 19.6531L14.7033 15.9408L13.2891 17.355L17.0014 21.0673L18.4156 19.6531ZM19.6531 17.0014L17.0014 19.6531L18.4156 21.0673L21.0673 18.4157L19.6531 17.0014ZM15.9408 14.7033L19.6531 18.4157L21.0673 17.0014L17.355 13.2891L15.9408 14.7033ZM19.6531 9.57682L15.9408 13.2891L17.355 14.7033L21.0673 10.991L19.6531 9.57682ZM17.0014 8.33942L19.6531 10.991L21.0673 9.57682L18.4156 6.92519L17.0014 8.33942ZM14.7033 12.0517L18.4156 8.33942L17.0014 6.92519L13.2891 10.6375L14.7033 12.0517ZM9.5768 8.33942L13.2891 12.0517L14.7033 10.6375L10.991 6.92519L9.5768 8.33942ZM8.3394 10.991L10.991 8.33942L9.5768 6.92519L6.92515 9.57682L8.3394 10.991ZM12.0517 13.2891L8.3394 9.57682L6.92515 10.991L10.6375 14.7033L12.0517 13.2891ZM8.3394 18.4157L12.0517 14.7033L10.6375 13.2891L6.92515 17.0014L8.3394 18.4157Z" fill="black" fill-opacity="0.15"/>
</g>
<defs>
<filter id="filter0_i_1050_63" x="4" y="0" width="175" height="110" filterUnits="userSpaceOnUse" color-interpolation-filters="sRGB">
<feFlood flood-opacity="0" result="BackgroundImageFix"/>
<feBlend mode="normal" in="SourceGraphic" in2="BackgroundImageFix" result="shape"/>
<feColorMatrix in="SourceAlpha" type="matrix" values="0 0 0 0 0 0 0 0 0 0 0 0 0 0 0 0 0 0 127 0" result="hardAlpha"/>
<feOffset dy="-4"/>
<feGaussianBlur stdDeviation="2"/>
<feComposite in2="hardAlpha" operator="arithmetic" k2="-1" k3="1"/>
<feColorMatrix type="matrix" values="0 0 0 0 0 0 0 0 0 0 0 0 0 0 0 0 0 0 0.15 0"/>
<feBlend mode="normal" in2="shape" result="effect1_innerShadow_1050_63"/>
</filter>
</defs>
</svg>
